<svg width="247" height="160" viewBox="0 0 247 160" fill="none" xmlns="http://www.w3.org/2000/svg">
<path d="M114 83.4C120.4 74.4 123.4 64.4 123.4 53.2C123.4 38.6 118.2 26.2 107.8 15.6C97.4 5.19999 84.8 0 70.2 0H0L13.8 23.8L16.8 26.8H70.2C77.4 26.8 83.6 29.4 88.8 34.6C94.2 39.8 96.8 46 96.8 53.2C96.8 60.6 94.2 67 88.8 72.2C83.6 77.4 77.4 80 70.2 80L46.4 79.8L92.8 160H123.4L90.6 102.6C100 98.8 107.8 92.4 114 83.4Z" fill="black"/>
<path d="M139.757 70L160.055 106.875V160H178.902V106.875L246.5 24.5H225.113L169.527 89.1992L159.599 70H139.757Z" fill="black"/>
</svg>
