<?xml version="1.0" standalone="no"?>
<!DOCTYPE svg PUBLIC "-//W3C//DTD SVG 20010904//EN"
 "http://www.w3.org/TR/2001/REC-SVG-20010904/DTD/svg10.dtd">
<svg version="1.0" xmlns="http://www.w3.org/2000/svg"
 width="988.000000pt" height="988.000000pt" viewBox="0 0 988.000000 988.000000"
 preserveAspectRatio="xMidYMid meet">
<metadata>
Created by potrace 1.14, written by Peter Selinger 2001-2017
</metadata>
<g transform="translate(0.000000,988.000000) scale(0.100000,-0.100000)"
fill="#000000" stroke="none">
<path d="M12 8118 c17 -26 65 -109 88 -150 14 -26 63 -110 285 -493 48 -82
101 -175 118 -205 17 -30 35 -56 39 -58 4 -2 8 -8 8 -13 0 -6 27 -37 61 -71
l61 -60 1136 -3 c626 -1 1151 -5 1169 -8 17 -3 49 -11 70 -16 21 -6 47 -12 58
-14 11 -2 37 -11 59 -20 21 -9 41 -17 45 -17 4 0 33 -14 65 -30 216 -113 421
-325 515 -535 25 -57 61 -180 67 -230 4 -27 8 -53 10 -57 6 -10 5 -219 -2
-258 -3 -19 -7 -46 -9 -60 -18 -137 -96 -318 -190 -439 -45 -59 -152 -170
-201 -210 -82 -66 -257 -164 -311 -174 -10 -2 -27 -7 -38 -11 -109 -41 -174
-45 -728 -42 -290 2 -526 0 -524 -3 2 -3 10 -21 17 -38 8 -18 18 -33 22 -33 4
0 8 -4 8 -9 0 -5 27 -55 60 -110 33 -56 60 -104 60 -108 0 -3 6 -14 14 -22 7
-9 31 -47 51 -86 21 -38 46 -81 55 -95 9 -14 20 -32 23 -40 4 -8 17 -31 28
-50 20 -32 190 -326 229 -395 9 -16 38 -65 64 -108 25 -43 46 -80 46 -83 0 -2
18 -33 40 -69 22 -36 40 -69 40 -74 0 -4 11 -21 25 -37 14 -16 25 -32 25 -37
0 -8 90 -168 100 -177 6 -6 48 -83 64 -117 6 -13 14 -23 19 -23 4 0 7 -5 7
-10 0 -6 11 -27 23 -48 13 -20 41 -68 62 -107 21 -38 43 -77 49 -85 11 -15 18
-27 58 -99 11 -20 36 -63 55 -96 19 -33 38 -67 43 -75 5 -8 42 -71 82 -140 40
-69 81 -141 92 -160 10 -19 29 -51 42 -70 13 -19 24 -40 24 -47 0 -7 4 -13 8
-13 4 0 13 -12 19 -27 12 -29 52 -100 66 -118 4 -5 58 -97 118 -203 l111 -192
609 0 c335 0 609 2 609 6 0 3 -26 51 -59 107 -32 56 -71 125 -86 152 -16 28
-39 67 -52 88 -13 21 -28 48 -33 60 -5 12 -21 40 -34 62 -47 76 -96 166 -96
175 0 6 -4 10 -10 10 -5 0 -10 4 -10 10 0 5 -18 39 -40 75 -22 36 -40 67 -40
69 0 4 -81 146 -100 176 -5 8 -21 37 -35 63 -14 27 -44 77 -65 113 -22 35 -40
66 -40 69 0 3 -18 34 -40 70 -22 36 -40 68 -40 70 0 3 -11 22 -23 43 -13 20
-35 57 -49 82 -50 90 -177 313 -198 350 -37 63 -158 275 -183 320 -16 30 -38
67 -49 82 -10 14 -18 30 -18 35 0 6 39 28 88 51 48 23 114 58 147 77 33 19 74
42 90 51 17 9 32 20 35 23 3 3 28 22 55 41 28 19 55 39 61 45 7 5 31 26 55 45
45 36 208 197 244 241 11 13 43 53 70 89 28 36 52 67 55 70 3 3 10 13 15 22 6
9 32 50 60 90 27 40 72 116 98 168 27 52 53 100 57 105 4 6 11 25 15 43 3 17
11 32 17 32 6 0 9 3 6 6 -3 3 4 31 16 62 20 52 62 195 72 246 2 12 6 32 9 46
3 14 7 39 10 55 3 17 7 44 10 60 24 139 24 492 0 630 -3 17 -8 46 -11 65 -4
19 -8 44 -9 55 -6 40 -14 75 -19 83 -3 5 -7 22 -10 38 -23 130 -140 397 -247
565 -105 165 -257 344 -409 483 -36 33 -204 163 -236 183 -276 174 -535 274
-819 318 -27 4 -61 10 -75 12 -14 3 -713 7 -1554 9 l-1529 5 15 -23z"/>
<path d="M9029 7162 c-20 -2 -52 -33 -125 -119 -55 -64 -104 -121 -109 -127
-6 -6 -35 -40 -65 -76 -30 -36 -57 -67 -60 -70 -3 -3 -59 -68 -125 -145 -66
-77 -122 -142 -125 -145 -3 -3 -30 -34 -60 -70 -90 -107 -104 -122 -130 -151
-14 -15 -38 -44 -55 -65 -16 -20 -37 -44 -46 -53 -8 -9 -37 -43 -65 -76 -27
-32 -56 -66 -64 -75 -17 -18 -65 -73 -125 -145 -22 -27 -45 -53 -51 -59 -5 -6
-52 -60 -104 -121 -52 -60 -104 -121 -116 -135 -28 -32 -143 -166 -175 -204
-13 -16 -31 -37 -39 -46 -8 -9 -39 -45 -69 -81 -30 -35 -59 -68 -65 -74 -6 -5
-47 -53 -91 -105 -44 -52 -84 -100 -90 -106 -5 -7 -30 -35 -55 -64 -25 -29
-54 -63 -65 -75 -11 -13 -36 -42 -56 -66 -21 -24 -51 -60 -68 -79 -17 -19 -31
-38 -31 -42 0 -17 -26 -6 -36 15 -5 12 -60 119 -121 237 -61 118 -144 279
-185 357 l-73 143 -398 0 -398 0 27 -47 c14 -27 42 -77 62 -113 19 -36 38 -69
42 -75 4 -5 27 -46 50 -90 49 -92 87 -160 148 -270 23 -42 42 -81 42 -86 0 -5
5 -9 10 -9 6 0 10 -9 10 -19 0 -11 4 -21 8 -23 4 -1 26 -37 49 -78 22 -41 57
-106 78 -145 21 -38 46 -82 57 -97 11 -16 16 -28 13 -28 -3 0 2 -12 13 -28 10
-15 41 -67 67 -117 27 -49 57 -106 68 -125 62 -107 90 -190 64 -190 -4 0 -5
-5 -1 -12 11 -18 11 -141 1 -155 -5 -7 -6 -13 -1 -13 11 0 11 -121 0 -138 -4
-7 -4 -12 1 -12 4 0 8 -34 8 -75 0 -41 -4 -75 -9 -75 -5 0 -4 -6 1 -12 5 -7 7
-44 6 -83 -2 -38 -3 -76 -3 -82 0 -31 0 -134 0 -145 0 -7 1 -46 3 -85 1 -40
-2 -73 -7 -73 -5 0 -4 -6 1 -12 5 -7 7 -44 6 -83 -3 -85 -3 -63 0 -223 1 -72
-2 -132 -6 -132 -5 0 -5 -6 -1 -12 11 -17 11 -318 1 -318 -5 0 -5 -5 -1 -11
10 -17 10 -149 0 -149 -5 0 -4 -6 1 -12 5 -7 8 -43 7 -80 l-2 -68 377 0 376 0
0 1058 -1 1057 25 35 c26 35 47 63 66 84 6 6 40 47 75 91 36 43 72 87 80 96 8
9 26 31 40 49 14 19 30 38 35 44 6 6 38 44 70 85 33 41 69 85 80 96 11 12 28
33 38 46 66 86 103 129 109 129 5 0 8 5 8 10 0 6 10 21 23 34 12 12 33 37 47
56 14 18 32 41 42 52 9 10 31 38 50 60 18 23 49 61 68 84 19 23 42 50 50 60
40 50 245 300 250 304 3 3 32 38 65 79 69 86 219 269 237 291 7 8 33 39 58 70
25 31 52 64 60 73 26 31 34 40 100 122 35 44 67 82 70 85 5 5 84 100 110 134
8 10 29 35 46 55 16 20 59 72 95 116 63 79 95 117 114 139 6 6 37 45 70 86 33
41 62 77 65 80 3 3 46 55 95 115 49 61 92 112 95 115 3 3 30 37 61 75 31 39
65 80 75 92 11 12 29 35 41 50 20 25 50 61 84 101 9 11 7 13 -12 12 -13 -1
-28 -1 -34 0 -22 4 -106 2 -111 -3 -3 -3 -18 -2 -32 2 -15 5 -36 5 -47 1 -11
-4 -31 -4 -45 0 -14 4 -34 4 -45 0 -11 -4 -32 -4 -47 1 -15 4 -30 4 -33 -1 -3
-4 -21 -4 -40 0 -19 4 -37 4 -40 0 -3 -4 -21 -4 -40 0 -19 4 -37 4 -40 0 -3
-5 -18 -5 -33 -1 -15 5 -36 5 -47 1 -11 -4 -25 -5 -31 -3 -15 6 -112 9 -145 5z"/>
</g>
</svg>
